<svg width="214" height="215" viewBox="0 0 214 215" fill="none" xmlns="http://www.w3.org/2000/svg">
<path d="M156.754 129.107C154.607 128.034 140.649 121.592 138.502 120.518C136.355 119.444 134.207 119.444 132.06 121.592C129.913 123.739 125.618 130.181 123.471 132.328C122.397 134.476 120.25 134.476 118.102 133.402C110.587 130.181 103.071 125.886 96.6292 120.518C91.2609 115.15 85.8926 108.708 81.598 102.266C80.5243 100.119 81.598 97.9713 82.6717 96.8976C83.7453 95.824 84.819 93.6767 86.9663 92.603C88.04 91.5293 89.1136 89.382 89.1136 88.3084C90.1873 87.2347 90.1873 85.0874 89.1136 84.0137C88.0399 82.9401 82.6717 70.0562 80.5243 64.6879C79.4507 57.1723 77.3034 57.1723 75.1561 57.1723H69.7878C67.6404 57.1723 64.4195 59.3196 63.3458 60.3933C56.9039 66.8352 53.6829 74.3508 53.6829 82.9401C54.7566 92.603 57.9775 102.266 64.4195 110.855C76.2297 128.034 91.2609 141.991 109.513 150.581C114.881 152.728 119.176 154.875 124.544 155.949C129.913 158.096 135.281 158.096 141.723 157.022C149.238 155.949 155.68 150.581 159.975 144.139C162.122 139.844 162.122 135.549 161.049 131.255L156.754 129.107ZM183.596 31.4045C141.723 -10.4682 74.0824 -10.4682 32.2097 31.4045C-2.14732 65.7616 -8.58926 118.371 15.0312 160.243L0 215L56.9039 199.969C73.0087 208.558 90.1873 212.853 107.366 212.853C166.417 212.853 213.658 165.612 213.658 106.561C214.732 78.6454 202.921 51.804 183.596 31.4045ZM154.607 181.717C140.649 190.306 124.544 195.674 107.366 195.674C91.2609 195.674 76.2297 191.38 62.2722 183.864L59.0512 181.717L25.7678 190.306L34.3571 158.096L32.2097 154.875C6.44195 111.929 19.3258 58.2459 61.1985 31.4045C103.071 4.56305 156.754 18.5206 182.522 59.3196C208.29 101.192 196.479 155.949 154.607 181.717Z" fill="#6FE713"/>
</svg>
