<svg width="1989" height="1310" viewBox="0 0 1989 1310" fill="none" xmlns="http://www.w3.org/2000/svg">
<rect width="1989" height="1310" rx="24" fill="#E7E2D6"></rect>
<path d="M1426.63 1165.28C1415.61 1165.28 1406.76 1162.33 1400.11 1156.44C1393.45 1150.55 1390.13 1143.13 1390.13 1134.19C1390.13 1125.07 1393.45 1117.56 1400.11 1111.66C1406.76 1105.58 1415.61 1102.53 1426.63 1102.53C1437.47 1102.53 1446.22 1105.58 1452.87 1111.66C1459.53 1117.56 1462.86 1125.07 1462.86 1134.19C1462.86 1143.13 1459.53 1150.55 1452.87 1156.44C1446.22 1162.33 1437.47 1165.28 1426.63 1165.28Z" fill="#DEA61F"></path>
<path d="M200.598 188.236V258H194.398L153.181 199.58H152.635V258H146.265V188.236H152.431L193.785 246.725H194.33V188.236H200.598ZM248.632 259.09C243.749 259.09 239.525 257.955 235.96 255.684C232.395 253.39 229.635 250.222 227.682 246.18C225.752 242.115 224.787 237.437 224.787 232.145C224.787 226.877 225.752 222.198 227.682 218.111C229.635 214 232.327 210.787 235.756 208.471C239.207 206.132 243.193 204.962 247.712 204.962C250.551 204.962 253.287 205.484 255.922 206.529C258.556 207.551 260.918 209.129 263.007 211.264C265.119 213.376 266.788 216.044 268.014 219.269C269.241 222.471 269.854 226.263 269.854 230.646V233.644H228.977V228.296H263.654C263.654 224.935 262.973 221.915 261.61 219.235C260.271 216.532 258.397 214.398 255.99 212.831C253.605 211.264 250.846 210.48 247.712 210.48C244.397 210.48 241.478 211.366 238.958 213.137C236.437 214.909 234.461 217.248 233.03 220.155C231.623 223.061 230.907 226.241 230.884 229.693V232.895C230.884 237.05 231.6 240.684 233.03 243.795C234.484 246.884 236.539 249.28 239.196 250.983C241.853 252.686 244.998 253.538 248.632 253.538C251.107 253.538 253.276 253.152 255.138 252.379C257.023 251.607 258.601 250.574 259.873 249.28C261.168 247.962 262.144 246.52 262.803 244.953L268.559 246.827C267.765 249.03 266.459 251.062 264.642 252.924C262.848 254.787 260.6 256.285 257.897 257.421C255.218 258.534 252.129 259.09 248.632 259.09ZM304.424 258L288.618 205.677H295.022L307.422 248.837H307.865L320.23 205.677H326.668L338.931 248.735H339.408L351.807 205.677H358.211L342.406 258H336.138L323.738 215.113H323.091L310.692 258H304.424ZM410.882 188.236H418.239L438.916 221.347H439.53L460.207 188.236H467.564L442.391 227.785V258H436.055V227.785L410.882 188.236ZM500.798 259.09C496.278 259.09 492.282 257.943 488.807 255.65C485.355 253.356 482.653 250.188 480.7 246.146C478.747 242.081 477.77 237.391 477.77 232.077C477.77 226.718 478.747 222.005 480.7 217.94C482.653 213.853 485.355 210.673 488.807 208.402C492.282 206.109 496.278 204.962 500.798 204.962C505.317 204.962 509.302 206.109 512.754 208.402C516.206 210.696 518.908 213.875 520.861 217.94C522.837 222.005 523.825 226.718 523.825 232.077C523.825 237.391 522.848 242.081 520.895 246.146C518.942 250.188 516.229 253.356 512.754 255.65C509.302 257.943 505.317 259.09 500.798 259.09ZM500.798 253.538C504.431 253.538 507.508 252.561 510.029 250.608C512.55 248.655 514.457 246.055 515.752 242.807C517.069 239.56 517.727 235.983 517.727 232.077C517.727 228.171 517.069 224.583 515.752 221.313C514.457 218.043 512.55 215.42 510.029 213.444C507.508 211.468 504.431 210.48 500.798 210.48C497.187 210.48 494.11 211.468 491.566 213.444C489.045 215.42 487.126 218.043 485.809 221.313C484.515 224.583 483.868 228.171 483.868 232.077C483.868 235.983 484.515 239.56 485.809 242.807C487.126 246.055 489.045 248.655 491.566 250.608C494.087 252.561 497.164 253.538 500.798 253.538ZM546.728 258V205.677H552.621V213.716H553.064C554.109 211.082 555.925 208.959 558.514 207.346C561.126 205.711 564.078 204.894 567.371 204.894C567.871 204.894 568.427 204.905 569.04 204.928C569.653 204.951 570.164 204.973 570.573 204.996V211.162C570.301 211.116 569.824 211.048 569.142 210.957C568.461 210.866 567.723 210.821 566.928 210.821C564.203 210.821 561.773 211.4 559.638 212.558C557.526 213.694 555.857 215.272 554.631 217.293C553.405 219.314 552.791 221.619 552.791 224.208V258H546.728ZM596.031 238.243L595.963 230.306H597.325L621.852 205.677H629.516L605.296 229.931L604.751 230.033L596.031 238.243ZM590.513 258V188.236H596.576V258H590.513ZM623.112 258L601.856 231.123L606.216 226.933L630.879 258H623.112Z" fill="#1E1E1E"></path>
<path d="M764.265 258V188.236H786.782C791.733 188.236 795.866 189.19 799.181 191.098C802.52 192.983 805.029 195.549 806.71 198.796C808.413 202.044 809.264 205.7 809.264 209.765C809.264 213.83 808.424 217.498 806.744 220.768C805.063 224.015 802.565 226.593 799.249 228.5C795.934 230.385 791.812 231.328 786.884 231.328H769.171V225.605H786.714C790.37 225.605 793.402 224.924 795.809 223.561C798.216 222.176 800.01 220.291 801.191 217.906C802.395 215.522 802.997 212.808 802.997 209.765C802.997 206.722 802.395 204.008 801.191 201.624C800.01 199.239 798.205 197.366 795.775 196.003C793.368 194.641 790.313 193.959 786.612 193.959H770.635V258H764.265ZM838.614 225.298V258H832.551V188.236H838.614V213.887H839.159C840.385 211.184 842.282 209.027 844.848 207.415C847.437 205.802 850.707 204.996 854.658 204.996C858.201 204.996 861.312 205.723 863.992 207.176C866.672 208.63 868.761 210.776 870.26 213.614C871.759 216.453 872.508 219.95 872.508 224.106V258H866.41V224.481C866.41 220.166 865.207 216.771 862.8 214.296C860.415 211.798 857.19 210.549 853.125 210.549C850.332 210.549 847.845 211.139 845.665 212.32C843.485 213.501 841.759 215.204 840.488 217.429C839.239 219.632 838.614 222.255 838.614 225.298ZM918.404 259.09C913.885 259.09 909.888 257.943 906.414 255.65C902.962 253.356 900.26 250.188 898.307 246.146C896.354 242.081 895.377 237.391 895.377 232.077C895.377 226.718 896.354 222.005 898.307 217.94C900.26 213.853 902.962 210.673 906.414 208.402C909.888 206.109 913.885 204.962 918.404 204.962C922.924 204.962 926.909 206.109 930.361 208.402C933.813 210.696 936.515 213.875 938.468 217.94C940.444 222.005 941.432 226.718 941.432 232.077C941.432 237.391 940.455 242.081 938.502 246.146C936.549 250.188 933.836 253.356 930.361 255.65C926.909 257.943 922.924 259.09 918.404 259.09ZM918.404 253.538C922.038 253.538 925.115 252.561 927.636 250.608C930.157 248.655 932.064 246.055 933.359 242.807C934.676 239.56 935.334 235.983 935.334 232.077C935.334 228.171 934.676 224.583 933.359 221.313C932.064 218.043 930.157 215.42 927.636 213.444C925.115 211.468 922.038 210.48 918.404 210.48C914.794 210.48 911.717 211.468 909.173 213.444C906.652 215.42 904.733 218.043 903.416 221.313C902.122 224.583 901.475 228.171 901.475 232.077C901.475 235.983 902.122 239.56 903.416 242.807C904.733 246.055 906.652 248.655 909.173 250.608C911.694 252.561 914.771 253.538 918.404 253.538ZM984.944 205.677V210.957H959.975V205.677H984.944ZM967.775 193.142H973.873V244.34C973.873 246.52 974.248 248.235 974.997 249.484C975.746 250.71 976.723 251.585 977.927 252.107C979.13 252.606 980.413 252.856 981.776 252.856C982.571 252.856 983.252 252.811 983.82 252.72C984.387 252.606 984.887 252.493 985.319 252.379L986.613 257.864C986.023 258.091 985.296 258.295 984.433 258.477C983.57 258.681 982.503 258.783 981.231 258.783C979.005 258.783 976.859 258.295 974.793 257.319C972.749 256.342 971.068 254.889 969.751 252.958C968.434 251.028 967.775 248.632 967.775 245.771V193.142ZM1028.08 259.09C1023.56 259.09 1019.57 257.943 1016.09 255.65C1012.64 253.356 1009.94 250.188 1007.98 246.146C1006.03 242.081 1005.05 237.391 1005.05 232.077C1005.05 226.718 1006.03 222.005 1007.98 217.94C1009.94 213.853 1012.64 210.673 1016.09 208.402C1019.57 206.109 1023.56 204.962 1028.08 204.962C1032.6 204.962 1036.59 206.109 1040.04 208.402C1043.49 210.696 1046.19 213.875 1048.14 217.94C1050.12 222.005 1051.11 226.718 1051.11 232.077C1051.11 237.391 1050.13 242.081 1048.18 246.146C1046.23 250.188 1043.51 253.356 1040.04 255.65C1036.59 257.943 1032.6 259.09 1028.08 259.09ZM1028.08 253.538C1031.71 253.538 1034.79 252.561 1037.31 250.608C1039.83 248.655 1041.74 246.055 1043.04 242.807C1044.35 239.56 1045.01 235.983 1045.01 232.077C1045.01 228.171 1044.35 224.583 1043.04 221.313C1041.74 218.043 1039.83 215.42 1037.31 213.444C1034.79 211.468 1031.71 210.48 1028.08 210.48C1024.47 210.48 1021.39 211.468 1018.85 213.444C1016.33 215.42 1014.41 218.043 1013.09 221.313C1011.8 224.583 1011.15 228.171 1011.15 232.077C1011.15 235.983 1011.8 239.56 1013.09 242.807C1014.41 246.055 1016.33 248.655 1018.85 250.608C1021.37 252.561 1024.45 253.538 1028.08 253.538ZM1093.97 278.711C1090.41 278.711 1087.29 278.246 1084.61 277.314C1081.93 276.406 1079.67 275.157 1077.83 273.567C1075.99 271.978 1074.56 270.195 1073.53 268.219L1078.51 264.949C1079.26 266.266 1080.26 267.561 1081.51 268.832C1082.78 270.104 1084.42 271.16 1086.45 272C1088.49 272.841 1091 273.261 1093.97 273.261C1098.61 273.261 1102.34 272.103 1105.18 269.786C1108.04 267.47 1109.47 263.87 1109.47 258.988V247.202H1108.93C1108.22 248.791 1107.21 250.381 1105.9 251.971C1104.58 253.538 1102.85 254.843 1100.72 255.888C1098.61 256.933 1095.98 257.455 1092.85 257.455C1088.67 257.455 1084.96 256.422 1081.71 254.355C1078.49 252.289 1075.94 249.336 1074.08 245.498C1072.24 241.638 1071.32 237.039 1071.32 231.702C1071.32 226.411 1072.22 221.756 1074.01 217.736C1075.83 213.716 1078.36 210.583 1081.61 208.334C1084.86 206.086 1088.64 204.962 1092.95 204.962C1096.15 204.962 1098.81 205.53 1100.92 206.665C1103.03 207.778 1104.73 209.163 1106 210.821C1107.29 212.479 1108.3 214.091 1109.03 215.658H1109.64V205.677H1115.57V259.363C1115.57 263.791 1114.63 267.436 1112.74 270.297C1110.86 273.159 1108.29 275.271 1105.04 276.633C1101.8 278.018 1098.11 278.711 1093.97 278.711ZM1093.56 251.903C1096.93 251.903 1099.8 251.096 1102.18 249.484C1104.57 247.849 1106.4 245.51 1107.67 242.467C1108.94 239.424 1109.57 235.801 1109.57 231.6C1109.57 227.513 1108.95 223.89 1107.7 220.734C1106.45 217.554 1104.64 215.056 1102.25 213.24C1099.89 211.4 1096.99 210.48 1093.56 210.48C1090.07 210.48 1087.11 211.423 1084.71 213.308C1082.3 215.193 1080.48 217.736 1079.26 220.938C1078.03 224.117 1077.42 227.671 1077.42 231.6C1077.42 235.597 1078.04 239.128 1079.29 242.194C1080.54 245.237 1082.37 247.622 1084.78 249.348C1087.18 251.051 1090.11 251.903 1093.56 251.903ZM1141.22 258V205.677H1147.11V213.716H1147.55C1148.6 211.082 1150.41 208.959 1153 207.346C1155.61 205.711 1158.57 204.894 1161.86 204.894C1162.36 204.894 1162.91 204.905 1163.53 204.928C1164.14 204.951 1164.65 204.973 1165.06 204.996V211.162C1164.79 211.116 1164.31 211.048 1163.63 210.957C1162.95 210.866 1162.21 210.821 1161.42 210.821C1158.69 210.821 1156.26 211.4 1154.13 212.558C1152.01 213.694 1150.34 215.272 1149.12 217.293C1147.89 219.314 1147.28 221.619 1147.28 224.208V258H1141.22ZM1199.61 259.192C1196.46 259.192 1193.57 258.579 1190.96 257.353C1188.35 256.104 1186.27 254.31 1184.73 251.971C1183.18 249.609 1182.41 246.747 1182.41 243.386C1182.41 240.798 1182.9 238.617 1183.88 236.846C1184.85 235.075 1186.24 233.621 1188.03 232.486C1189.83 231.35 1191.95 230.453 1194.4 229.795C1196.85 229.136 1199.56 228.625 1202.51 228.262C1205.44 227.899 1207.91 227.581 1209.93 227.308C1211.98 227.036 1213.53 226.604 1214.6 226.014C1215.67 225.423 1216.2 224.469 1216.2 223.152V221.926C1216.2 218.361 1215.14 215.556 1213 213.512C1210.89 211.446 1207.85 210.412 1203.87 210.412C1200.1 210.412 1197.02 211.241 1194.64 212.899C1192.28 214.557 1190.62 216.51 1189.67 218.758L1183.91 216.68C1185.09 213.819 1186.73 211.536 1188.81 209.833C1190.9 208.107 1193.24 206.87 1195.83 206.12C1198.42 205.348 1201.04 204.962 1203.7 204.962C1205.7 204.962 1207.78 205.223 1209.93 205.745C1212.11 206.268 1214.14 207.176 1216 208.471C1217.86 209.742 1219.37 211.525 1220.53 213.819C1221.69 216.09 1222.27 218.974 1222.27 222.471V258H1216.2V249.722H1215.83C1215.1 251.267 1214.02 252.765 1212.59 254.219C1211.16 255.672 1209.37 256.865 1207.21 257.796C1205.05 258.727 1202.52 259.192 1199.61 259.192ZM1200.43 253.64C1203.66 253.64 1206.45 252.924 1208.81 251.494C1211.17 250.063 1212.99 248.167 1214.26 245.805C1215.56 243.421 1216.2 240.798 1216.2 237.936V230.374C1215.75 230.805 1214.99 231.191 1213.92 231.532C1212.88 231.873 1211.66 232.179 1210.28 232.452C1208.91 232.702 1207.55 232.917 1206.19 233.099C1204.83 233.281 1203.6 233.44 1202.51 233.576C1199.56 233.939 1197.04 234.507 1194.95 235.279C1192.86 236.051 1191.26 237.119 1190.14 238.481C1189.03 239.821 1188.47 241.547 1188.47 243.659C1188.47 246.838 1189.61 249.302 1191.88 251.051C1194.15 252.777 1197 253.64 1200.43 253.64ZM1247.99 277.621V205.677H1253.88V215.658H1254.6C1255.32 214.091 1256.32 212.49 1257.59 210.855C1258.87 209.197 1260.55 207.801 1262.64 206.665C1264.75 205.53 1267.4 204.962 1270.61 204.962C1274.92 204.962 1278.69 206.097 1281.92 208.368C1285.16 210.617 1287.68 213.773 1289.48 217.838C1291.29 221.881 1292.2 226.593 1292.2 231.975C1292.2 237.38 1291.29 242.115 1289.48 246.18C1287.68 250.245 1285.16 253.413 1281.92 255.684C1278.69 257.955 1274.94 259.09 1270.67 259.09C1267.52 259.09 1264.87 258.522 1262.74 257.387C1260.63 256.251 1258.91 254.855 1257.59 253.197C1256.3 251.516 1255.3 249.881 1254.6 248.292H1254.05V277.621H1247.99ZM1253.98 231.873C1253.98 236.097 1254.61 239.844 1255.86 243.114C1257.13 246.361 1258.95 248.916 1261.31 250.778C1263.69 252.618 1266.58 253.538 1269.96 253.538C1273.43 253.538 1276.36 252.584 1278.75 250.676C1281.16 248.746 1282.98 246.146 1284.23 242.875C1285.5 239.605 1286.14 235.938 1286.14 231.873C1286.14 227.853 1285.52 224.231 1284.27 221.006C1283.04 217.781 1281.22 215.227 1278.82 213.342C1276.41 211.434 1273.46 210.48 1269.96 210.48C1266.55 210.48 1263.66 211.4 1261.27 213.24C1258.89 215.056 1257.07 217.577 1255.82 220.802C1254.6 224.004 1253.98 227.694 1253.98 231.873ZM1321.16 225.298V258H1315.1V188.236H1321.16V213.887H1321.71C1322.93 211.184 1324.83 209.027 1327.39 207.415C1329.98 205.802 1333.25 204.996 1337.21 204.996C1340.75 204.996 1343.86 205.723 1346.54 207.176C1349.22 208.63 1351.31 210.776 1352.81 213.614C1354.31 216.453 1355.06 219.95 1355.06 224.106V258H1348.96V224.481C1348.96 220.166 1347.75 216.771 1345.35 214.296C1342.96 211.798 1339.74 210.549 1335.67 210.549C1332.88 210.549 1330.39 211.139 1328.21 212.32C1326.03 213.501 1324.31 215.204 1323.03 217.429C1321.79 219.632 1321.16 222.255 1321.16 225.298ZM1401.77 259.09C1396.89 259.09 1392.66 257.955 1389.1 255.684C1385.53 253.39 1382.77 250.222 1380.82 246.18C1378.89 242.115 1377.92 237.437 1377.92 232.145C1377.92 226.877 1378.89 222.198 1380.82 218.111C1382.77 214 1385.46 210.787 1388.89 208.471C1392.34 206.132 1396.33 204.962 1400.85 204.962C1403.69 204.962 1406.42 205.484 1409.06 206.529C1411.69 207.551 1414.05 209.129 1416.14 211.264C1418.26 213.376 1419.93 216.044 1421.15 219.269C1422.38 222.471 1422.99 226.263 1422.99 230.646V233.644H1382.11V228.296H1416.79C1416.79 224.935 1416.11 221.915 1414.75 219.235C1413.41 216.532 1411.53 214.398 1409.13 212.831C1406.74 211.264 1403.98 210.48 1400.85 210.48C1397.53 210.48 1394.62 211.366 1392.09 213.137C1389.57 214.909 1387.6 217.248 1386.17 220.155C1384.76 223.061 1384.04 226.241 1384.02 229.693V232.895C1384.02 237.05 1384.74 240.684 1386.17 243.795C1387.62 246.884 1389.68 249.28 1392.33 250.983C1394.99 252.686 1398.14 253.538 1401.77 253.538C1404.24 253.538 1406.41 253.152 1408.28 252.379C1410.16 251.607 1411.74 250.574 1413.01 249.28C1414.3 247.962 1415.28 246.52 1415.94 244.953L1421.7 246.827C1420.9 249.03 1419.6 251.062 1417.78 252.924C1415.99 254.787 1413.74 256.285 1411.03 257.421C1408.35 258.534 1405.27 259.09 1401.77 259.09ZM1445.95 258V205.677H1451.84V213.716H1452.28C1453.33 211.082 1455.14 208.959 1457.73 207.346C1460.34 205.711 1463.3 204.894 1466.59 204.894C1467.09 204.894 1467.64 204.905 1468.26 204.928C1468.87 204.951 1469.38 204.973 1469.79 204.996V211.162C1469.52 211.116 1469.04 211.048 1468.36 210.957C1467.68 210.866 1466.94 210.821 1466.15 210.821C1463.42 210.821 1460.99 211.4 1458.86 212.558C1456.74 213.694 1455.07 215.272 1453.85 217.293C1452.62 219.314 1452.01 221.619 1452.01 224.208V258H1445.95Z" fill="#1E1E1E"></path>
<path d="M695.502 235.443C694.48 235.443 693.605 235.091 692.879 234.387C692.175 233.66 691.823 232.786 691.823 231.764C691.823 230.765 692.175 229.902 692.879 229.175C693.605 228.448 694.48 228.085 695.502 228.085C696.501 228.085 697.364 228.448 698.09 229.175C698.817 229.902 699.181 230.765 699.181 231.764C699.181 232.445 699.01 233.07 698.67 233.637C698.352 234.182 697.909 234.625 697.341 234.966C696.796 235.284 696.183 235.443 695.502 235.443Z" fill="black"></path>
<path d="M203.386 1123.7V1163H185.919C153.757 1163 137.675 1146.99 137.675 1114.96V1084.19H123.119V1045.72H137.675V1017.44H183.839V1045.72H202.971V1084.19H183.839V1115.8C183.839 1118.57 184.463 1120.58 185.711 1121.83C187.097 1123.07 189.315 1123.7 192.365 1123.7H203.386ZM202.252 1104.36C202.252 1092.02 204.332 1081.35 208.491 1072.34C212.788 1063.19 218.611 1056.25 225.958 1051.54C233.306 1046.69 241.554 1044.26 250.704 1044.26C258.329 1044.26 264.914 1045.86 270.459 1049.05C276.004 1052.1 280.232 1056.32 283.144 1061.73V1045.72H329.1V1163H283.144V1146.99C280.232 1152.39 276.004 1156.69 270.459 1159.88C264.914 1162.93 258.329 1164.46 250.704 1164.46C241.554 1164.46 233.306 1162.1 225.958 1157.39C218.611 1152.53 212.788 1145.6 208.491 1136.59C204.332 1127.44 202.252 1116.7 202.252 1104.36ZM283.144 1104.36C283.144 1098.12 281.549 1093.27 278.361 1089.8C275.172 1086.34 271.083 1084.6 266.092 1084.6C261.101 1084.6 257.012 1086.34 253.823 1089.8C250.635 1093.27 249.04 1098.12 249.04 1104.36C249.04 1110.6 250.635 1115.45 253.823 1118.92C257.012 1122.38 261.101 1124.11 266.092 1124.11C271.083 1124.11 275.172 1122.38 278.361 1118.92C281.549 1115.45 283.144 1110.6 283.144 1104.36ZM360.642 1036.36C352.602 1036.36 346.156 1034.21 341.303 1029.91C336.451 1025.62 334.025 1020.21 334.025 1013.69C334.025 1007.04 336.451 1001.56 341.303 997.267C346.156 992.831 352.602 990.613 360.642 990.613C368.544 990.613 374.921 992.831 379.773 997.267C384.626 1001.56 387.052 1007.04 387.052 1013.69C387.052 1020.21 384.626 1025.62 379.773 1029.91C374.921 1034.21 368.544 1036.36 360.642 1036.36ZM383.517 1045.72V1163H337.352V1045.72H383.517ZM474.028 1044.89C487.476 1044.89 497.942 1049.39 505.428 1058.4C513.053 1067.41 516.865 1079.61 516.865 1095V1163H470.909V1100.82C470.909 1095.28 469.384 1090.91 466.334 1087.72C463.423 1084.4 459.472 1082.73 454.481 1082.73C449.352 1082.73 445.332 1084.4 442.421 1087.72C439.509 1090.91 438.054 1095.28 438.054 1100.82V1163H391.89V1045.72H438.054V1063.6C441.658 1058.06 446.441 1053.55 452.402 1050.09C458.502 1046.62 465.71 1044.89 474.028 1044.89ZM518.168 1104.36C518.168 1092.02 520.248 1081.35 524.407 1072.34C528.704 1063.19 534.527 1056.25 541.874 1051.54C549.221 1046.69 557.47 1044.26 566.62 1044.26C574.244 1044.26 580.829 1045.86 586.374 1049.05C591.92 1052.1 596.148 1056.32 599.059 1061.73V1045.72H645.015V1163H599.059V1146.99C596.148 1152.39 591.92 1156.69 586.374 1159.88C580.829 1162.93 574.244 1164.46 566.62 1164.46C557.47 1164.46 549.221 1162.1 541.874 1157.39C534.527 1152.53 528.704 1145.6 524.407 1136.59C520.248 1127.44 518.168 1116.7 518.168 1104.36ZM599.059 1104.36C599.059 1098.12 597.465 1093.27 594.276 1089.8C591.088 1086.34 586.998 1084.6 582.008 1084.6C577.017 1084.6 572.927 1086.34 569.739 1089.8C566.55 1093.27 564.956 1098.12 564.956 1104.36C564.956 1110.6 566.55 1115.45 569.739 1118.92C572.927 1122.38 577.017 1124.11 582.008 1124.11C586.998 1124.11 591.088 1122.38 594.276 1118.92C597.465 1115.45 599.059 1110.6 599.059 1104.36ZM722.29 1061.73C725.201 1056.32 729.36 1052.1 734.767 1049.05C740.312 1045.86 746.897 1044.26 754.522 1044.26C763.671 1044.26 771.92 1046.69 779.267 1051.54C786.615 1056.25 792.368 1063.19 796.527 1072.34C800.824 1081.35 802.973 1092.02 802.973 1104.36C802.973 1116.7 800.824 1127.44 796.527 1136.59C792.368 1145.6 786.615 1152.53 779.267 1157.39C771.92 1162.1 763.671 1164.46 754.522 1164.46C746.897 1164.46 740.312 1162.93 734.767 1159.88C729.36 1156.69 725.201 1152.39 722.29 1146.99V1163H676.126V1009.12H722.29V1061.73ZM756.185 1104.36C756.185 1098.12 754.591 1093.27 751.402 1089.8C748.214 1086.34 744.124 1084.6 739.134 1084.6C734.143 1084.6 730.053 1086.34 726.865 1089.8C723.676 1093.27 722.082 1098.12 722.082 1104.36C722.082 1110.6 723.676 1115.45 726.865 1118.92C730.053 1122.38 734.143 1124.11 739.134 1124.11C744.124 1124.11 748.214 1122.38 751.402 1118.92C754.591 1115.45 756.185 1110.6 756.185 1104.36ZM860.717 1164.46C848.934 1164.46 838.328 1162.03 828.901 1157.18C819.474 1152.33 812.058 1145.39 806.651 1136.38C801.383 1127.23 798.749 1116.56 798.749 1104.36C798.749 1092.16 801.383 1081.55 806.651 1072.54C812.058 1063.39 819.474 1056.39 828.901 1051.54C838.328 1046.69 848.934 1044.26 860.717 1044.26C872.501 1044.26 883.106 1046.69 892.533 1051.54C901.96 1056.39 909.307 1063.39 914.575 1072.54C919.982 1081.55 922.685 1092.16 922.685 1104.36C922.685 1116.56 919.982 1127.23 914.575 1136.38C909.307 1145.39 901.96 1152.33 892.533 1157.18C883.106 1162.03 872.501 1164.46 860.717 1164.46ZM860.717 1124.53C865.015 1124.53 868.619 1122.87 871.53 1119.54C874.442 1116.07 875.897 1111.01 875.897 1104.36C875.897 1097.7 874.442 1092.71 871.53 1089.39C868.619 1085.92 865.015 1084.19 860.717 1084.19C856.42 1084.19 852.815 1085.92 849.904 1089.39C846.993 1092.71 845.537 1097.7 845.537 1104.36C845.537 1111.01 846.923 1116.07 849.696 1119.54C852.607 1122.87 856.281 1124.53 860.717 1124.53ZM970.875 1067.34C975.588 1060.55 981.342 1055.15 988.135 1051.12C994.927 1046.97 1002 1044.89 1009.35 1044.89V1094.17H996.244C987.511 1094.17 981.064 1095.69 976.905 1098.74C972.885 1101.79 970.875 1107.2 970.875 1114.96V1163H924.711V1045.72H970.875V1067.34ZM1051.52 1044.26C1059.14 1044.26 1065.73 1045.86 1071.27 1049.05C1076.82 1052.1 1081.04 1056.32 1083.96 1061.73V1045.72H1129.91V1160.92C1129.91 1171.87 1127.9 1181.85 1123.88 1190.86C1119.86 1199.88 1113.35 1207.08 1104.33 1212.49C1095.46 1217.9 1084.02 1220.6 1070.02 1220.6C1051.17 1220.6 1036.2 1216.16 1025.11 1207.29C1014.15 1198.56 1007.92 1186.64 1006.39 1171.53H1051.72C1052.97 1177.63 1057.96 1180.68 1066.7 1180.68C1072.1 1180.68 1076.33 1179.29 1079.38 1176.52C1082.43 1173.74 1083.96 1168.55 1083.96 1160.92V1146.99C1081.04 1152.39 1076.82 1156.69 1071.27 1159.88C1065.73 1162.93 1059.14 1164.46 1051.52 1164.46C1042.37 1164.46 1034.12 1162.1 1026.77 1157.39C1019.42 1152.53 1013.6 1145.6 1009.3 1136.59C1005.14 1127.44 1003.06 1116.7 1003.06 1104.36C1003.06 1092.02 1005.14 1081.35 1009.3 1072.34C1013.6 1063.19 1019.42 1056.25 1026.77 1051.54C1034.12 1046.69 1042.37 1044.26 1051.52 1044.26ZM1083.96 1104.36C1083.96 1098.12 1082.36 1093.27 1079.17 1089.8C1075.98 1086.34 1071.89 1084.6 1066.9 1084.6C1061.91 1084.6 1057.82 1086.34 1054.64 1089.8C1051.45 1093.27 1049.85 1098.12 1049.85 1104.36C1049.85 1110.6 1051.45 1115.45 1054.64 1118.92C1057.82 1122.38 1061.91 1124.11 1066.9 1124.11C1071.89 1124.11 1075.98 1122.38 1079.17 1118.92C1082.36 1115.45 1083.96 1110.6 1083.96 1104.36ZM1251.7 1103.32C1251.7 1106.51 1251.5 1109.56 1251.08 1112.47H1176.84C1177.54 1122.59 1181.76 1127.65 1189.53 1127.65C1194.52 1127.65 1198.12 1125.36 1200.34 1120.79H1249.21C1247.54 1129.1 1244.01 1136.59 1238.6 1143.25C1233.33 1149.76 1226.61 1154.96 1218.43 1158.84C1210.39 1162.58 1201.52 1164.46 1191.81 1164.46C1180.17 1164.46 1169.77 1162.03 1160.62 1157.18C1151.61 1152.33 1144.54 1145.39 1139.41 1136.38C1134.42 1127.23 1131.93 1116.56 1131.93 1104.36C1131.93 1092.16 1134.42 1081.55 1139.41 1072.54C1144.54 1063.39 1151.61 1056.39 1160.62 1051.54C1169.77 1046.69 1180.17 1044.26 1191.81 1044.26C1203.46 1044.26 1213.79 1046.69 1222.8 1051.54C1231.95 1056.25 1239.02 1063.05 1244.01 1071.92C1249.14 1080.79 1251.7 1091.26 1251.7 1103.32ZM1204.92 1092.3C1204.92 1088.42 1203.67 1085.51 1201.17 1083.56C1198.68 1081.49 1195.56 1080.45 1191.81 1080.45C1183.64 1080.45 1178.85 1084.4 1177.47 1092.3H1204.92ZM1306.02 1164.46C1294.93 1164.46 1285.09 1162.65 1276.49 1159.05C1268.04 1155.44 1261.31 1150.45 1256.32 1144.08C1251.33 1137.7 1248.49 1130.49 1247.8 1122.45H1292.09C1292.64 1125.92 1294.1 1128.48 1296.46 1130.14C1298.95 1131.81 1302.07 1132.64 1305.81 1132.64C1308.17 1132.64 1310.04 1132.15 1311.43 1131.18C1312.81 1130.08 1313.51 1128.76 1313.51 1127.23C1313.51 1124.6 1312.05 1122.73 1309.14 1121.62C1306.23 1120.51 1301.31 1119.26 1294.38 1117.88C1285.92 1116.21 1278.92 1114.41 1273.37 1112.47C1267.97 1110.53 1263.18 1107.2 1259.03 1102.49C1255 1097.77 1252.99 1091.26 1252.99 1082.94C1252.99 1075.73 1254.87 1069.22 1258.61 1063.39C1262.49 1057.43 1268.17 1052.79 1275.66 1049.46C1283.15 1046 1292.23 1044.26 1302.9 1044.26C1318.71 1044.26 1331.04 1048.14 1339.92 1055.91C1348.93 1063.67 1354.33 1073.79 1356.14 1086.27H1315.17C1314.48 1083.08 1313.02 1080.65 1310.8 1078.99C1308.59 1077.19 1305.6 1076.29 1301.86 1076.29C1299.51 1076.29 1297.7 1076.77 1296.46 1077.74C1295.21 1078.57 1294.58 1079.89 1294.58 1081.69C1294.58 1084.05 1296.04 1085.85 1298.95 1087.1C1301.86 1088.21 1306.51 1089.39 1312.88 1090.63C1321.34 1092.3 1328.48 1094.17 1334.3 1096.25C1340.12 1098.33 1345.18 1101.93 1349.48 1107.06C1353.78 1112.05 1355.93 1118.98 1355.93 1127.86C1355.93 1134.79 1353.92 1141.03 1349.9 1146.57C1345.88 1152.12 1340.05 1156.48 1332.43 1159.67C1324.94 1162.86 1316.14 1164.46 1306.02 1164.46Z" fill="black"></path>
<circle cx="273.478" cy="759.223" r="195.478" fill="#DEA61F"></circle>
<circle cx="696.312" cy="759.223" r="195.478" fill="#7E4834"></circle>
<circle cx="1119.15" cy="759.223" r="195.478" fill="black"></circle>
<path d="M370.433 644.17V702.545H308.076V879H234.443V702.545H172.75V644.17H370.433Z" fill="white"></path>
<path d="M766.069 758.6C780.22 761.916 791.166 768.771 798.905 779.164C806.865 789.335 810.846 801.165 810.846 814.654C810.846 835.218 803.991 851.139 790.281 862.416C776.793 873.472 757.334 879 731.905 879H608.852V644.17H728.589C752.47 644.17 771.265 649.366 784.975 659.759C798.684 670.151 805.539 685.298 805.539 705.199C805.539 718.908 801.89 730.517 794.593 740.025C787.517 749.313 778.009 755.504 766.069 758.6ZM682.485 735.714H711.01C717.643 735.714 722.508 734.387 725.604 731.733C728.92 729.08 730.579 724.989 730.579 719.461C730.579 713.712 728.92 709.511 725.604 706.857C722.508 703.983 717.643 702.545 711.01 702.545H682.485V735.714ZM715.985 819.961C722.618 819.961 727.483 818.745 730.579 816.312C733.896 813.659 735.554 809.457 735.554 803.708C735.554 792.431 729.031 786.793 715.985 786.793H682.485V819.961H715.985Z" fill="white"></path>
<path d="M1119.02 736.584C1114.59 736.584 1110.21 737.455 1106.12 739.149C1102.03 740.842 1098.32 743.324 1095.19 746.453C1092.06 749.582 1089.58 753.297 1087.88 757.385C1086.19 761.473 1085.32 765.855 1085.32 770.28C1085.32 774.705 1086.19 779.087 1087.88 783.175C1089.58 787.263 1092.06 790.978 1095.19 794.107C1098.32 797.236 1102.03 799.718 1106.12 801.411C1110.21 803.105 1114.59 803.976 1119.02 803.976C1127.95 803.976 1136.52 800.426 1142.84 794.107C1149.16 787.788 1152.71 779.217 1152.71 770.28C1152.71 761.343 1149.16 752.773 1142.84 746.453C1136.52 740.134 1127.95 736.584 1119.02 736.584ZM1208.87 702.888H1181.91C1179.97 702.799 1178.1 702.146 1176.53 701.009C1174.95 699.872 1173.75 698.299 1173.05 696.485L1166.08 675.582C1165.38 673.77 1164.17 672.201 1162.59 671.066C1161.02 669.931 1159.14 669.28 1157.2 669.191H1080.83C1077.12 669.191 1073.12 672.067 1071.96 675.571L1064.98 696.485C1064.28 698.299 1063.07 699.87 1061.5 701.007C1059.93 702.144 1058.06 702.798 1056.12 702.888H1029.16C1016.8 702.888 1006.69 712.997 1006.69 725.352V826.441C1006.69 838.796 1016.8 848.905 1029.16 848.905H1208.87C1221.23 848.905 1231.34 838.796 1231.34 826.441V725.352C1231.34 712.997 1221.23 702.888 1208.87 702.888ZM1119.02 826.441C1104.12 826.441 1089.84 820.524 1079.3 809.992C1068.77 799.459 1062.85 785.175 1062.85 770.28C1062.85 755.386 1068.77 741.101 1079.3 730.569C1089.84 720.037 1104.12 714.12 1119.02 714.12C1133.91 714.12 1148.19 720.037 1158.73 730.569C1169.26 741.101 1175.18 755.386 1175.18 770.28C1175.18 785.175 1169.26 799.459 1158.73 809.992C1148.19 820.524 1133.91 826.441 1119.02 826.441ZM1203.26 738.83C1201.17 738.83 1199.17 738.002 1197.7 736.527C1196.22 735.053 1195.39 733.053 1195.39 730.968C1195.39 728.883 1196.22 726.883 1197.7 725.408C1199.17 723.934 1201.17 723.105 1203.26 723.105C1205.34 723.105 1207.34 723.934 1208.82 725.408C1210.29 726.883 1211.12 728.883 1211.12 730.968C1211.12 733.053 1210.29 735.053 1208.82 736.527C1207.34 738.002 1205.34 738.83 1203.26 738.83Z" fill="white"></path>
</svg>