<svg width="1989" height="1310" viewBox="0 0 1989 1310" fill="none" xmlns="http://www.w3.org/2000/svg">
<rect width="1989" height="1310" rx="24" fill="#161513"></rect>
<path d="M228.598 188.236V258H222.398L181.181 199.58H180.635V258H174.265V188.236H180.431L221.785 246.725H222.33V188.236H228.598ZM276.632 259.09C271.749 259.09 267.525 257.955 263.96 255.684C260.395 253.39 257.635 250.222 255.682 246.18C253.752 242.115 252.787 237.437 252.787 232.145C252.787 226.877 253.752 222.198 255.682 218.111C257.635 214 260.327 210.787 263.756 208.471C267.207 206.132 271.193 204.962 275.712 204.962C278.551 204.962 281.287 205.484 283.922 206.529C286.556 207.551 288.918 209.129 291.007 211.264C293.119 213.376 294.788 216.044 296.014 219.269C297.241 222.471 297.854 226.263 297.854 230.646V233.644H256.977V228.296H291.654C291.654 224.935 290.973 221.915 289.61 219.235C288.271 216.532 286.397 214.398 283.99 212.831C281.605 211.264 278.846 210.48 275.712 210.48C272.397 210.48 269.478 211.366 266.958 213.137C264.437 214.909 262.461 217.248 261.03 220.155C259.623 223.061 258.907 226.241 258.884 229.693V232.895C258.884 237.05 259.6 240.684 261.03 243.795C262.484 246.884 264.539 249.28 267.196 250.983C269.853 252.686 272.998 253.538 276.632 253.538C279.107 253.538 281.276 253.152 283.138 252.379C285.023 251.607 286.601 250.574 287.873 249.28C289.168 247.962 290.144 246.52 290.803 244.953L296.559 246.827C295.765 249.03 294.459 251.062 292.642 252.924C290.848 254.787 288.6 256.285 285.897 257.421C283.218 258.534 280.129 259.09 276.632 259.09ZM332.424 258L316.618 205.677H323.022L335.422 248.837H335.865L348.23 205.677H354.668L366.931 248.735H367.408L379.807 205.677H386.211L370.406 258H364.138L351.738 215.113H351.091L338.692 258H332.424ZM438.882 188.236H446.239L466.916 221.347H467.53L488.207 188.236H495.564L470.391 227.785V258H464.055V227.785L438.882 188.236ZM528.798 259.09C524.278 259.09 520.282 257.943 516.807 255.65C513.355 253.356 510.653 250.188 508.7 246.146C506.747 242.081 505.77 237.391 505.77 232.077C505.77 226.718 506.747 222.005 508.7 217.94C510.653 213.853 513.355 210.673 516.807 208.402C520.282 206.109 524.278 204.962 528.798 204.962C533.317 204.962 537.302 206.109 540.754 208.402C544.206 210.696 546.908 213.875 548.861 217.94C550.837 222.005 551.825 226.718 551.825 232.077C551.825 237.391 550.848 242.081 548.895 246.146C546.942 250.188 544.229 253.356 540.754 255.65C537.302 257.943 533.317 259.09 528.798 259.09ZM528.798 253.538C532.431 253.538 535.508 252.561 538.029 250.608C540.55 248.655 542.457 246.055 543.752 242.807C545.069 239.56 545.727 235.983 545.727 232.077C545.727 228.171 545.069 224.583 543.752 221.313C542.457 218.043 540.55 215.42 538.029 213.444C535.508 211.468 532.431 210.48 528.798 210.48C525.187 210.48 522.11 211.468 519.566 213.444C517.045 215.42 515.126 218.043 513.809 221.313C512.515 224.583 511.868 228.171 511.868 232.077C511.868 235.983 512.515 239.56 513.809 242.807C515.126 246.055 517.045 248.655 519.566 250.608C522.087 252.561 525.164 253.538 528.798 253.538ZM574.728 258V205.677H580.621V213.716H581.064C582.109 211.082 583.925 208.959 586.514 207.346C589.126 205.711 592.078 204.894 595.371 204.894C595.871 204.894 596.427 204.905 597.04 204.928C597.653 204.951 598.164 204.973 598.573 204.996V211.162C598.301 211.116 597.824 211.048 597.142 210.957C596.461 210.866 595.723 210.821 594.928 210.821C592.203 210.821 589.773 211.4 587.638 212.558C585.526 213.694 583.857 215.272 582.631 217.293C581.405 219.314 580.791 221.619 580.791 224.208V258H574.728ZM624.031 238.243L623.963 230.306H625.325L649.852 205.677H657.516L633.296 229.931L632.751 230.033L624.031 238.243ZM618.513 258V188.236H624.576V258H618.513ZM651.112 258L629.856 231.123L634.216 226.933L658.879 258H651.112Z" fill="#959090"></path>
<path d="M792.265 258V188.236H814.782C819.733 188.236 823.866 189.19 827.181 191.098C830.52 192.983 833.029 195.549 834.71 198.796C836.413 202.044 837.264 205.7 837.264 209.765C837.264 213.83 836.424 217.498 834.744 220.768C833.063 224.015 830.565 226.593 827.249 228.5C823.934 230.385 819.812 231.328 814.884 231.328H797.171V225.605H814.714C818.37 225.605 821.402 224.924 823.809 223.561C826.216 222.176 828.01 220.291 829.191 217.906C830.395 215.522 830.997 212.808 830.997 209.765C830.997 206.722 830.395 204.008 829.191 201.624C828.01 199.239 826.205 197.366 823.775 196.003C821.368 194.641 818.313 193.959 814.612 193.959H798.635V258H792.265ZM866.614 225.298V258H860.551V188.236H866.614V213.887H867.159C868.385 211.184 870.282 209.027 872.848 207.415C875.437 205.802 878.707 204.996 882.658 204.996C886.201 204.996 889.312 205.723 891.992 207.176C894.672 208.63 896.761 210.776 898.26 213.614C899.759 216.453 900.508 219.95 900.508 224.106V258H894.41V224.481C894.41 220.166 893.207 216.771 890.8 214.296C888.415 211.798 885.19 210.549 881.125 210.549C878.332 210.549 875.845 211.139 873.665 212.32C871.485 213.501 869.759 215.204 868.488 217.429C867.239 219.632 866.614 222.255 866.614 225.298ZM946.404 259.09C941.885 259.09 937.888 257.943 934.414 255.65C930.962 253.356 928.26 250.188 926.307 246.146C924.354 242.081 923.377 237.391 923.377 232.077C923.377 226.718 924.354 222.005 926.307 217.94C928.26 213.853 930.962 210.673 934.414 208.402C937.888 206.109 941.885 204.962 946.404 204.962C950.924 204.962 954.909 206.109 958.361 208.402C961.813 210.696 964.515 213.875 966.468 217.94C968.444 222.005 969.432 226.718 969.432 232.077C969.432 237.391 968.455 242.081 966.502 246.146C964.549 250.188 961.836 253.356 958.361 255.65C954.909 257.943 950.924 259.09 946.404 259.09ZM946.404 253.538C950.038 253.538 953.115 252.561 955.636 250.608C958.157 248.655 960.064 246.055 961.359 242.807C962.676 239.56 963.334 235.983 963.334 232.077C963.334 228.171 962.676 224.583 961.359 221.313C960.064 218.043 958.157 215.42 955.636 213.444C953.115 211.468 950.038 210.48 946.404 210.48C942.794 210.48 939.717 211.468 937.173 213.444C934.652 215.42 932.733 218.043 931.416 221.313C930.122 224.583 929.475 228.171 929.475 232.077C929.475 235.983 930.122 239.56 931.416 242.807C932.733 246.055 934.652 248.655 937.173 250.608C939.694 252.561 942.771 253.538 946.404 253.538ZM1012.94 205.677V210.957H987.975V205.677H1012.94ZM995.775 193.142H1001.87V244.34C1001.87 246.52 1002.25 248.235 1003 249.484C1003.75 250.71 1004.72 251.585 1005.93 252.107C1007.13 252.606 1008.41 252.856 1009.78 252.856C1010.57 252.856 1011.25 252.811 1011.82 252.72C1012.39 252.606 1012.89 252.493 1013.32 252.379L1014.61 257.864C1014.02 258.091 1013.3 258.295 1012.43 258.477C1011.57 258.681 1010.5 258.783 1009.23 258.783C1007.01 258.783 1004.86 258.295 1002.79 257.319C1000.75 256.342 999.068 254.889 997.751 252.958C996.434 251.028 995.775 248.632 995.775 245.771V193.142ZM1056.08 259.09C1051.56 259.09 1047.57 257.943 1044.09 255.65C1040.64 253.356 1037.94 250.188 1035.98 246.146C1034.03 242.081 1033.05 237.391 1033.05 232.077C1033.05 226.718 1034.03 222.005 1035.98 217.94C1037.94 213.853 1040.64 210.673 1044.09 208.402C1047.57 206.109 1051.56 204.962 1056.08 204.962C1060.6 204.962 1064.59 206.109 1068.04 208.402C1071.49 210.696 1074.19 213.875 1076.14 217.94C1078.12 222.005 1079.11 226.718 1079.11 232.077C1079.11 237.391 1078.13 242.081 1076.18 246.146C1074.23 250.188 1071.51 253.356 1068.04 255.65C1064.59 257.943 1060.6 259.09 1056.08 259.09ZM1056.08 253.538C1059.71 253.538 1062.79 252.561 1065.31 250.608C1067.83 248.655 1069.74 246.055 1071.04 242.807C1072.35 239.56 1073.01 235.983 1073.01 232.077C1073.01 228.171 1072.35 224.583 1071.04 221.313C1069.74 218.043 1067.83 215.42 1065.31 213.444C1062.79 211.468 1059.71 210.48 1056.08 210.48C1052.47 210.48 1049.39 211.468 1046.85 213.444C1044.33 215.42 1042.41 218.043 1041.09 221.313C1039.8 224.583 1039.15 228.171 1039.15 232.077C1039.15 235.983 1039.8 239.56 1041.09 242.807C1042.41 246.055 1044.33 248.655 1046.85 250.608C1049.37 252.561 1052.45 253.538 1056.08 253.538ZM1121.97 278.711C1118.41 278.711 1115.29 278.246 1112.61 277.314C1109.93 276.406 1107.67 275.157 1105.83 273.567C1103.99 271.978 1102.56 270.195 1101.53 268.219L1106.51 264.949C1107.26 266.266 1108.26 267.561 1109.51 268.832C1110.78 270.104 1112.42 271.16 1114.45 272C1116.49 272.841 1119 273.261 1121.97 273.261C1126.61 273.261 1130.34 272.103 1133.18 269.786C1136.04 267.47 1137.47 263.87 1137.47 258.988V247.202H1136.93C1136.22 248.791 1135.21 250.381 1133.9 251.971C1132.58 253.538 1130.85 254.843 1128.72 255.888C1126.61 256.933 1123.98 257.455 1120.85 257.455C1116.67 257.455 1112.96 256.422 1109.71 254.355C1106.49 252.289 1103.94 249.336 1102.08 245.498C1100.24 241.638 1099.32 237.039 1099.32 231.702C1099.32 226.411 1100.22 221.756 1102.01 217.736C1103.83 213.716 1106.36 210.583 1109.61 208.334C1112.86 206.086 1116.64 204.962 1120.95 204.962C1124.15 204.962 1126.81 205.53 1128.92 206.665C1131.03 207.778 1132.73 209.163 1134 210.821C1135.29 212.479 1136.3 214.091 1137.03 215.658H1137.64V205.677H1143.57V259.363C1143.57 263.791 1142.63 267.436 1140.74 270.297C1138.86 273.159 1136.29 275.271 1133.04 276.633C1129.8 278.018 1126.11 278.711 1121.97 278.711ZM1121.56 251.903C1124.93 251.903 1127.8 251.096 1130.18 249.484C1132.57 247.849 1134.4 245.51 1135.67 242.467C1136.94 239.424 1137.57 235.801 1137.57 231.6C1137.57 227.513 1136.95 223.89 1135.7 220.734C1134.45 217.554 1132.64 215.056 1130.25 213.24C1127.89 211.4 1124.99 210.48 1121.56 210.48C1118.07 210.48 1115.11 211.423 1112.71 213.308C1110.3 215.193 1108.48 217.736 1107.26 220.938C1106.03 224.117 1105.42 227.671 1105.42 231.6C1105.42 235.597 1106.04 239.128 1107.29 242.194C1108.54 245.237 1110.37 247.622 1112.78 249.348C1115.18 251.051 1118.11 251.903 1121.56 251.903ZM1169.22 258V205.677H1175.11V213.716H1175.55C1176.6 211.082 1178.41 208.959 1181 207.346C1183.61 205.711 1186.57 204.894 1189.86 204.894C1190.36 204.894 1190.91 204.905 1191.53 204.928C1192.14 204.951 1192.65 204.973 1193.06 204.996V211.162C1192.79 211.116 1192.31 211.048 1191.63 210.957C1190.95 210.866 1190.21 210.821 1189.42 210.821C1186.69 210.821 1184.26 211.4 1182.13 212.558C1180.01 213.694 1178.34 215.272 1177.12 217.293C1175.89 219.314 1175.28 221.619 1175.28 224.208V258H1169.22ZM1227.61 259.192C1224.46 259.192 1221.57 258.579 1218.96 257.353C1216.35 256.104 1214.27 254.31 1212.73 251.971C1211.18 249.609 1210.41 246.747 1210.41 243.386C1210.41 240.798 1210.9 238.617 1211.88 236.846C1212.85 235.075 1214.24 233.621 1216.03 232.486C1217.83 231.35 1219.95 230.453 1222.4 229.795C1224.85 229.136 1227.56 228.625 1230.51 228.262C1233.44 227.899 1235.91 227.581 1237.93 227.308C1239.98 227.036 1241.53 226.604 1242.6 226.014C1243.67 225.423 1244.2 224.469 1244.2 223.152V221.926C1244.2 218.361 1243.14 215.556 1241 213.512C1238.89 211.446 1235.85 210.412 1231.87 210.412C1228.1 210.412 1225.02 211.241 1222.64 212.899C1220.28 214.557 1218.62 216.51 1217.67 218.758L1211.91 216.68C1213.09 213.819 1214.73 211.536 1216.81 209.833C1218.9 208.107 1221.24 206.87 1223.83 206.12C1226.42 205.348 1229.04 204.962 1231.7 204.962C1233.7 204.962 1235.78 205.223 1237.93 205.745C1240.11 206.268 1242.14 207.176 1244 208.471C1245.86 209.742 1247.37 211.525 1248.53 213.819C1249.69 216.09 1250.27 218.974 1250.27 222.471V258H1244.2V249.722H1243.83C1243.1 251.267 1242.02 252.765 1240.59 254.219C1239.16 255.672 1237.37 256.865 1235.21 257.796C1233.05 258.727 1230.52 259.192 1227.61 259.192ZM1228.43 253.64C1231.66 253.64 1234.45 252.924 1236.81 251.494C1239.17 250.063 1240.99 248.167 1242.26 245.805C1243.56 243.421 1244.2 240.798 1244.2 237.936V230.374C1243.75 230.805 1242.99 231.191 1241.92 231.532C1240.88 231.873 1239.66 232.179 1238.28 232.452C1236.91 232.702 1235.55 232.917 1234.19 233.099C1232.83 233.281 1231.6 233.44 1230.51 233.576C1227.56 233.939 1225.04 234.507 1222.95 235.279C1220.86 236.051 1219.26 237.119 1218.14 238.481C1217.03 239.821 1216.47 241.547 1216.47 243.659C1216.47 246.838 1217.61 249.302 1219.88 251.051C1222.15 252.777 1225 253.64 1228.43 253.64ZM1275.99 277.621V205.677H1281.88V215.658H1282.6C1283.32 214.091 1284.32 212.49 1285.59 210.855C1286.87 209.197 1288.55 207.801 1290.64 206.665C1292.75 205.53 1295.4 204.962 1298.61 204.962C1302.92 204.962 1306.69 206.097 1309.92 208.368C1313.16 210.617 1315.68 213.773 1317.48 217.838C1319.29 221.881 1320.2 226.593 1320.2 231.975C1320.2 237.38 1319.29 242.115 1317.48 246.18C1315.68 250.245 1313.16 253.413 1309.92 255.684C1306.69 257.955 1302.94 259.09 1298.67 259.09C1295.52 259.09 1292.87 258.522 1290.74 257.387C1288.63 256.251 1286.91 254.855 1285.59 253.197C1284.3 251.516 1283.3 249.881 1282.6 248.292H1282.05V277.621H1275.99ZM1281.98 231.873C1281.98 236.097 1282.61 239.844 1283.86 243.114C1285.13 246.361 1286.95 248.916 1289.31 250.778C1291.69 252.618 1294.58 253.538 1297.96 253.538C1301.43 253.538 1304.36 252.584 1306.75 250.676C1309.16 248.746 1310.98 246.146 1312.23 242.875C1313.5 239.605 1314.14 235.938 1314.14 231.873C1314.14 227.853 1313.52 224.231 1312.27 221.006C1311.04 217.781 1309.22 215.227 1306.82 213.342C1304.41 211.434 1301.46 210.48 1297.96 210.48C1294.55 210.48 1291.66 211.4 1289.27 213.24C1286.89 215.056 1285.07 217.577 1283.82 220.802C1282.6 224.004 1281.98 227.694 1281.98 231.873ZM1349.16 225.298V258H1343.1V188.236H1349.16V213.887H1349.71C1350.93 211.184 1352.83 209.027 1355.39 207.415C1357.98 205.802 1361.25 204.996 1365.21 204.996C1368.75 204.996 1371.86 205.723 1374.54 207.176C1377.22 208.63 1379.31 210.776 1380.81 213.614C1382.31 216.453 1383.06 219.95 1383.06 224.106V258H1376.96V224.481C1376.96 220.166 1375.75 216.771 1373.35 214.296C1370.96 211.798 1367.74 210.549 1363.67 210.549C1360.88 210.549 1358.39 211.139 1356.21 212.32C1354.03 213.501 1352.31 215.204 1351.03 217.429C1349.79 219.632 1349.16 222.255 1349.16 225.298ZM1429.77 259.09C1424.89 259.09 1420.66 257.955 1417.1 255.684C1413.53 253.39 1410.77 250.222 1408.82 246.18C1406.89 242.115 1405.92 237.437 1405.92 232.145C1405.92 226.877 1406.89 222.198 1408.82 218.111C1410.77 214 1413.46 210.787 1416.89 208.471C1420.34 206.132 1424.33 204.962 1428.85 204.962C1431.69 204.962 1434.42 205.484 1437.06 206.529C1439.69 207.551 1442.05 209.129 1444.14 211.264C1446.26 213.376 1447.93 216.044 1449.15 219.269C1450.38 222.471 1450.99 226.263 1450.99 230.646V233.644H1410.11V228.296H1444.79C1444.79 224.935 1444.11 221.915 1442.75 219.235C1441.41 216.532 1439.53 214.398 1437.13 212.831C1434.74 211.264 1431.98 210.48 1428.85 210.48C1425.53 210.48 1422.62 211.366 1420.09 213.137C1417.57 214.909 1415.6 217.248 1414.17 220.155C1412.76 223.061 1412.04 226.241 1412.02 229.693V232.895C1412.02 237.05 1412.74 240.684 1414.17 243.795C1415.62 246.884 1417.68 249.28 1420.33 250.983C1422.99 252.686 1426.14 253.538 1429.77 253.538C1432.24 253.538 1434.41 253.152 1436.28 252.379C1438.16 251.607 1439.74 250.574 1441.01 249.28C1442.3 247.962 1443.28 246.52 1443.94 244.953L1449.7 246.827C1448.9 249.03 1447.6 251.062 1445.78 252.924C1443.99 254.787 1441.74 256.285 1439.03 257.421C1436.35 258.534 1433.27 259.09 1429.77 259.09ZM1473.95 258V205.677H1479.84V213.716H1480.28C1481.33 211.082 1483.14 208.959 1485.73 207.346C1488.34 205.711 1491.3 204.894 1494.59 204.894C1495.09 204.894 1495.64 204.905 1496.26 204.928C1496.87 204.951 1497.38 204.973 1497.79 204.996V211.162C1497.52 211.116 1497.04 211.048 1496.36 210.957C1495.68 210.866 1494.94 210.821 1494.15 210.821C1491.42 210.821 1488.99 211.4 1486.86 212.558C1484.74 213.694 1483.07 215.272 1481.85 217.293C1480.62 219.314 1480.01 221.619 1480.01 224.208V258H1473.95Z" fill="#959090"></path>
<path d="M723.502 235.443C722.48 235.443 721.605 235.091 720.879 234.387C720.175 233.66 719.823 232.786 719.823 231.764C719.823 230.765 720.175 229.902 720.879 229.175C721.605 228.448 722.48 228.085 723.502 228.085C724.501 228.085 725.364 228.448 726.09 229.175C726.817 229.902 727.181 230.765 727.181 231.764C727.181 232.445 727.01 233.07 726.67 233.637C726.352 234.182 725.909 234.625 725.341 234.966C724.796 235.284 724.183 235.443 723.502 235.443Z" fill="#A5A5A5"></path>
<path d="M214.79 1130.86V1169.12H197.784C166.47 1169.12 150.813 1153.53 150.813 1122.36V1092.39H136.641V1054.94H150.813V1027.4H195.759V1054.94H214.385V1092.39H195.759V1123.17C195.759 1125.86 196.366 1127.82 197.581 1129.04C198.931 1130.25 201.09 1130.86 204.06 1130.86H214.79ZM213.686 1112.03C213.686 1100.02 215.711 1089.62 219.76 1080.85C223.944 1071.94 229.613 1065.19 236.766 1060.61C243.92 1055.88 251.951 1053.52 260.859 1053.52C268.282 1053.52 274.693 1055.07 280.092 1058.18C285.491 1061.15 289.608 1065.26 292.442 1070.53V1054.94H337.185V1169.12H292.442V1153.53C289.608 1158.8 285.491 1162.98 280.092 1166.09C274.693 1169.06 268.282 1170.54 260.859 1170.54C251.951 1170.54 243.92 1168.25 236.766 1163.66C229.613 1158.93 223.944 1152.18 219.76 1143.41C215.711 1134.5 213.686 1124.04 213.686 1112.03ZM292.442 1112.03C292.442 1105.96 290.89 1101.23 287.786 1097.86C284.681 1094.48 280.7 1092.8 275.841 1092.8C270.982 1092.8 267 1094.48 263.896 1097.86C260.791 1101.23 259.239 1105.96 259.239 1112.03C259.239 1118.1 260.791 1122.83 263.896 1126.2C267 1129.58 270.982 1131.26 275.841 1131.26C280.7 1131.26 284.681 1129.58 287.786 1126.2C290.89 1122.83 292.442 1118.1 292.442 1112.03ZM367.896 1045.83C360.067 1045.83 353.791 1043.73 349.067 1039.55C344.343 1035.37 341.981 1030.1 341.981 1023.76C341.981 1017.28 344.343 1011.95 349.067 1007.76C353.791 1003.45 360.067 1001.29 367.896 1001.29C375.589 1001.29 381.798 1003.45 386.522 1007.76C391.246 1011.95 393.608 1017.28 393.608 1023.76C393.608 1030.1 391.246 1035.37 386.522 1039.55C381.798 1043.73 375.589 1045.83 367.896 1045.83ZM390.166 1054.94V1169.12H345.22V1054.94H390.166ZM478.289 1054.13C491.381 1054.13 501.572 1058.51 508.86 1067.29C516.284 1076.06 519.995 1087.94 519.995 1102.92V1169.12H475.252V1108.59C475.252 1103.19 473.767 1098.94 470.798 1095.83C467.964 1092.59 464.117 1090.97 459.258 1090.97C454.264 1090.97 450.35 1092.59 447.515 1095.83C444.681 1098.94 443.264 1103.19 443.264 1108.59V1169.12H398.318V1054.94H443.264V1072.35C446.773 1066.95 451.43 1062.56 457.233 1059.19C463.172 1055.81 470.191 1054.13 478.289 1054.13ZM521.264 1112.03C521.264 1100.02 523.288 1089.62 527.338 1080.85C531.522 1071.94 537.19 1065.19 544.344 1060.61C551.497 1055.88 559.528 1053.52 568.436 1053.52C575.86 1053.52 582.271 1055.07 587.67 1058.18C593.069 1061.15 597.185 1065.26 600.02 1070.53V1054.94H644.763V1169.12H600.02V1153.53C597.185 1158.8 593.069 1162.98 587.67 1166.09C582.271 1169.06 575.86 1170.54 568.436 1170.54C559.528 1170.54 551.497 1168.25 544.344 1163.66C537.19 1158.93 531.522 1152.18 527.338 1143.41C523.288 1134.5 521.264 1124.04 521.264 1112.03ZM600.02 1112.03C600.02 1105.96 598.468 1101.23 595.363 1097.86C592.259 1094.48 588.277 1092.8 583.418 1092.8C578.559 1092.8 574.578 1094.48 571.473 1097.86C568.369 1101.23 566.817 1105.96 566.817 1112.03C566.817 1118.1 568.369 1122.83 571.473 1126.2C574.578 1129.58 578.559 1131.26 583.418 1131.26C588.277 1131.26 592.259 1129.58 595.363 1126.2C598.468 1122.83 600.02 1118.1 600.02 1112.03ZM719.998 1070.53C722.833 1065.26 726.882 1061.15 732.146 1058.18C737.545 1055.07 743.956 1053.52 751.379 1053.52C760.287 1053.52 768.318 1055.88 775.472 1060.61C782.625 1065.19 788.227 1071.94 792.276 1080.85C796.46 1089.62 798.552 1100.02 798.552 1112.03C798.552 1124.04 796.46 1134.5 792.276 1143.41C788.227 1152.18 782.625 1158.93 775.472 1163.66C768.318 1168.25 760.287 1170.54 751.379 1170.54C743.956 1170.54 737.545 1169.06 732.146 1166.09C726.882 1162.98 722.833 1158.8 719.998 1153.53V1169.12H675.053V1019.3H719.998V1070.53ZM752.999 1112.03C752.999 1105.96 751.447 1101.23 748.342 1097.86C745.238 1094.48 741.256 1092.8 736.397 1092.8C731.538 1092.8 727.557 1094.48 724.452 1097.86C721.348 1101.23 719.796 1105.96 719.796 1112.03C719.796 1118.1 721.348 1122.83 724.452 1126.2C727.557 1129.58 731.538 1131.26 736.397 1131.26C741.256 1131.26 745.238 1129.58 748.342 1126.2C751.447 1122.83 752.999 1118.1 752.999 1112.03ZM854.772 1170.54C843.299 1170.54 832.974 1168.18 823.796 1163.45C814.618 1158.73 807.397 1151.98 802.133 1143.21C797.004 1134.3 794.44 1123.91 794.44 1112.03C794.44 1100.15 797.004 1089.83 802.133 1081.05C807.397 1072.15 814.618 1065.33 823.796 1060.61C832.974 1055.88 843.299 1053.52 854.772 1053.52C866.245 1053.52 876.57 1055.88 885.748 1060.61C894.926 1065.33 902.08 1072.15 907.209 1081.05C912.472 1089.83 915.104 1100.15 915.104 1112.03C915.104 1123.91 912.472 1134.3 907.209 1143.21C902.08 1151.98 894.926 1158.73 885.748 1163.45C876.57 1168.18 866.245 1170.54 854.772 1170.54ZM854.772 1131.67C858.956 1131.67 862.465 1130.05 865.3 1126.81C868.134 1123.44 869.551 1118.51 869.551 1112.03C869.551 1105.55 868.134 1100.69 865.3 1097.45C862.465 1094.08 858.956 1092.39 854.772 1092.39C850.588 1092.39 847.079 1094.08 844.244 1097.45C841.41 1100.69 839.993 1105.55 839.993 1112.03C839.993 1118.51 841.342 1123.44 844.042 1126.81C846.876 1130.05 850.453 1131.67 854.772 1131.67ZM962.022 1075.99C966.611 1069.38 972.213 1064.11 978.826 1060.2C985.44 1056.15 992.324 1054.13 999.477 1054.13V1102.11H986.722C978.219 1102.11 971.943 1103.59 967.894 1106.56C963.979 1109.53 962.022 1114.8 962.022 1122.36V1169.12H917.077V1054.94H962.022V1075.99ZM1040.53 1053.52C1047.96 1053.52 1054.37 1055.07 1059.77 1058.18C1065.17 1061.15 1069.28 1065.26 1072.12 1070.53V1054.94H1116.86V1167.1C1116.86 1177.76 1114.9 1187.48 1110.99 1196.25C1107.08 1205.03 1100.73 1212.04 1091.96 1217.31C1083.32 1222.57 1072.19 1225.2 1058.55 1225.2C1040.2 1225.2 1025.62 1220.88 1014.82 1212.25C1004.16 1203.74 998.086 1192.14 996.602 1177.42H1040.74C1041.95 1183.36 1046.81 1186.33 1055.31 1186.33C1060.58 1186.33 1064.69 1184.98 1067.66 1182.28C1070.63 1179.58 1072.12 1174.52 1072.12 1167.1V1153.53C1069.28 1158.8 1065.17 1162.98 1059.77 1166.09C1054.37 1169.06 1047.96 1170.54 1040.53 1170.54C1031.63 1170.54 1023.6 1168.25 1016.44 1163.66C1009.29 1158.93 1003.62 1152.18 999.436 1143.41C995.387 1134.5 993.362 1124.04 993.362 1112.03C993.362 1100.02 995.387 1089.62 999.436 1080.85C1003.62 1071.94 1009.29 1065.19 1016.44 1060.61C1023.6 1055.88 1031.63 1053.52 1040.53 1053.52ZM1072.12 1112.03C1072.12 1105.96 1070.57 1101.23 1067.46 1097.86C1064.36 1094.48 1060.38 1092.8 1055.52 1092.8C1050.66 1092.8 1046.68 1094.48 1043.57 1097.86C1040.47 1101.23 1038.92 1105.96 1038.92 1112.03C1038.92 1118.1 1040.47 1122.83 1043.57 1126.2C1046.68 1129.58 1050.66 1131.26 1055.52 1131.26C1060.38 1131.26 1064.36 1129.58 1067.46 1126.2C1070.57 1122.83 1072.12 1118.1 1072.12 1112.03ZM1235.44 1111.02C1235.44 1114.12 1235.24 1117.09 1234.83 1119.93H1162.55C1163.23 1129.78 1167.35 1134.71 1174.9 1134.71C1179.76 1134.71 1183.27 1132.48 1185.43 1128.02H1233.01C1231.39 1136.12 1227.95 1143.41 1222.68 1149.89C1217.55 1156.23 1211.01 1161.29 1203.05 1165.07C1195.22 1168.72 1186.58 1170.54 1177.13 1170.54C1165.79 1170.54 1155.67 1168.18 1146.76 1163.45C1137.99 1158.73 1131.11 1151.98 1126.11 1143.21C1121.25 1134.3 1118.82 1123.91 1118.82 1112.03C1118.82 1100.15 1121.25 1089.83 1126.11 1081.05C1131.11 1072.15 1137.99 1065.33 1146.76 1060.61C1155.67 1055.88 1165.79 1053.52 1177.13 1053.52C1188.47 1053.52 1198.52 1055.88 1207.3 1060.61C1216.21 1065.19 1223.09 1071.81 1227.95 1080.45C1232.94 1089.08 1235.44 1099.28 1235.44 1111.02ZM1189.89 1100.29C1189.89 1096.51 1188.67 1093.67 1186.24 1091.78C1183.81 1089.76 1180.77 1088.75 1177.13 1088.75C1169.17 1088.75 1164.51 1092.59 1163.16 1100.29H1189.89ZM1288.32 1170.54C1277.52 1170.54 1267.94 1168.79 1259.57 1165.28C1251.34 1161.77 1244.79 1156.91 1239.94 1150.7C1235.08 1144.49 1232.31 1137.47 1231.63 1129.64H1274.76C1275.3 1133.02 1276.72 1135.52 1279.01 1137.13C1281.44 1138.75 1284.48 1139.56 1288.12 1139.56C1290.41 1139.56 1292.24 1139.09 1293.59 1138.15C1294.94 1137.07 1295.61 1135.78 1295.61 1134.3C1295.61 1131.74 1294.19 1129.91 1291.36 1128.83C1288.53 1127.75 1283.73 1126.54 1276.99 1125.19C1268.75 1123.57 1261.94 1121.82 1256.54 1119.93C1251.27 1118.04 1246.62 1114.8 1242.57 1110.21C1238.65 1105.62 1236.7 1099.28 1236.7 1091.18C1236.7 1084.16 1238.52 1077.81 1242.16 1072.15C1245.94 1066.34 1251.48 1061.82 1258.76 1058.58C1266.05 1055.21 1274.89 1053.52 1285.29 1053.52C1300.67 1053.52 1312.69 1057.3 1321.32 1064.86C1330.1 1072.42 1335.36 1082.27 1337.12 1094.42H1297.23C1296.56 1091.31 1295.14 1088.95 1292.98 1087.33C1290.82 1085.58 1287.92 1084.7 1284.27 1084.7C1281.98 1084.7 1280.22 1085.17 1279.01 1086.12C1277.79 1086.93 1277.19 1088.21 1277.19 1089.96C1277.19 1092.26 1278.6 1094.01 1281.44 1095.23C1284.27 1096.31 1288.8 1097.45 1295 1098.67C1303.24 1100.29 1310.19 1102.11 1315.86 1104.13C1321.53 1106.16 1326.45 1109.67 1330.64 1114.66C1334.82 1119.52 1336.91 1126.27 1336.91 1134.91C1336.91 1141.66 1334.96 1147.73 1331.04 1153.13C1327.13 1158.53 1321.46 1162.78 1314.03 1165.88C1306.75 1168.99 1298.18 1170.54 1288.32 1170.54Z" fill="#E7E2D6"></path>
<circle cx="309.318" cy="746.75" r="190.318" fill="#DEA61F"></circle>
<circle cx="720.992" cy="746.75" r="190.318" fill="#7E4834"></circle>
<circle cx="1132.67" cy="746.75" r="190.318" fill="white"></circle>
<path d="M403.715 634.367V691.203H343.004V863H271.314V691.203H211.25V634.367H403.715Z" fill="white"></path>
<path d="M788.908 745.777C802.687 749.007 813.343 755.68 820.878 765.799C828.628 775.702 832.504 787.22 832.504 800.352C832.504 820.374 825.83 835.874 812.482 846.854C799.35 857.618 780.405 863 755.647 863H635.841V634.367H752.418C775.668 634.367 793.968 639.427 807.315 649.545C820.663 659.663 827.337 674.41 827.337 693.786C827.337 707.134 823.784 718.436 816.68 727.693C809.791 736.735 800.534 742.763 788.908 745.777ZM707.531 723.495H735.302C741.761 723.495 746.497 722.204 749.511 719.62C752.74 717.037 754.355 713.054 754.355 707.672C754.355 702.075 752.74 697.984 749.511 695.401C746.497 692.602 741.761 691.203 735.302 691.203H707.531V723.495ZM740.146 805.519C746.605 805.519 751.341 804.335 754.355 801.967C757.584 799.383 759.199 795.293 759.199 789.695C759.199 778.716 752.848 773.226 740.146 773.226H707.531V805.519H740.146Z" fill="white"></path>
<path d="M1132.54 724.71C1128.23 724.71 1123.97 725.558 1119.99 727.207C1116 728.856 1112.39 731.272 1109.34 734.318C1106.3 737.365 1103.88 740.981 1102.23 744.962C1100.58 748.942 1099.73 753.208 1099.73 757.516C1099.73 761.825 1100.58 766.091 1102.23 770.071C1103.88 774.051 1106.3 777.668 1109.34 780.714C1112.39 783.761 1116 786.177 1119.99 787.826C1123.97 789.475 1128.23 790.323 1132.54 790.323C1141.24 790.323 1149.59 786.867 1155.74 780.714C1161.89 774.562 1165.35 766.217 1165.35 757.516C1165.35 748.816 1161.89 740.471 1155.74 734.318C1149.59 728.166 1141.24 724.71 1132.54 724.71ZM1220.03 691.903H1193.78C1191.89 691.816 1190.07 691.181 1188.54 690.073C1187 688.966 1185.83 687.435 1185.15 685.669L1178.36 665.318C1177.68 663.554 1176.5 662.026 1174.97 660.921C1173.43 659.816 1171.61 659.182 1169.72 659.096H1095.36C1091.75 659.096 1087.86 661.895 1086.73 665.307L1079.93 685.669C1079.25 687.435 1078.08 688.965 1076.54 690.072C1075.01 691.179 1073.19 691.815 1071.3 691.903H1045.05C1033.03 691.903 1023.18 701.745 1023.18 713.774V812.195C1023.18 824.224 1033.03 834.066 1045.05 834.066H1220.03C1232.05 834.066 1241.9 824.224 1241.9 812.195V713.774C1241.9 701.745 1232.05 691.903 1220.03 691.903ZM1132.54 812.195C1118.04 812.195 1104.13 806.434 1093.88 796.18C1083.62 785.926 1077.86 772.018 1077.86 757.516C1077.86 743.015 1083.62 729.107 1093.88 718.853C1104.13 708.599 1118.04 702.838 1132.54 702.838C1147.04 702.838 1160.95 708.599 1171.2 718.853C1181.46 729.107 1187.22 743.015 1187.22 757.516C1187.22 772.018 1181.46 785.926 1171.2 796.18C1160.95 806.434 1147.04 812.195 1132.54 812.195ZM1214.56 726.897C1212.53 726.897 1210.58 726.09 1209.14 724.655C1207.71 723.219 1206.9 721.272 1206.9 719.242C1206.9 717.211 1207.71 715.264 1209.14 713.829C1210.58 712.393 1212.53 711.587 1214.56 711.587C1216.59 711.587 1218.53 712.393 1219.97 713.829C1221.41 715.264 1222.21 717.211 1222.21 719.242C1222.21 721.272 1221.41 723.219 1219.97 724.655C1218.53 726.09 1216.59 726.897 1214.56 726.897Z" fill="black"></path>
<path d="M1401.86 1171.59C1391.12 1171.59 1382.51 1168.72 1376.03 1162.98C1369.55 1157.24 1366.31 1150.02 1366.31 1141.32C1366.31 1132.43 1369.55 1125.12 1376.03 1119.38C1382.51 1113.46 1391.12 1110.5 1401.86 1110.5C1412.41 1110.5 1420.93 1113.46 1427.4 1119.38C1433.88 1125.12 1437.12 1132.43 1437.12 1141.32C1437.12 1150.02 1433.88 1157.24 1427.4 1162.98C1420.93 1168.72 1412.41 1171.59 1401.86 1171.59Z" fill="#DEA61F"></path>
</svg>